<svg width="69" height="99" viewBox="0 0 69 99" fill="none" xmlns="http://www.w3.org/2000/svg">
<path d="M34.4999 98.25C33.3819 98.25 32.4235 97.925 31.6249 97.275C30.8263 96.625 30.2274 95.7719 29.828 94.7156C28.3107 90.1656 26.394 85.9 24.078 81.9187C21.8419 77.9375 18.6874 73.2656 14.6145 67.9031C10.5416 62.5406 7.22735 57.4219 4.67179 52.5469C2.1961 47.6719 0.958252 41.7812 0.958252 34.875C0.958252 25.3687 4.19263 17.325 10.6614 10.7437C17.21 4.08125 25.1562 0.75 34.4999 0.75C43.8437 0.75 51.7499 4.08125 58.2187 10.7437C64.7673 17.325 68.0416 25.3687 68.0416 34.875C68.0416 42.2687 66.644 48.4437 63.8489 53.4C61.1336 58.275 57.9791 63.1094 54.3853 67.9031C50.0728 73.7531 46.7985 78.6281 44.5624 82.5281C42.4062 86.3469 40.6093 90.4094 39.1718 94.7156C38.7725 95.8531 38.1336 96.7469 37.2551 97.3969C36.4565 97.9656 35.5381 98.25 34.4999 98.25ZM34.4999 80.8219C35.8576 78.0594 37.3749 75.3375 39.052 72.6562C40.8089 69.975 43.3645 66.4 46.7187 61.9312C50.1527 57.3812 52.9478 53.1969 55.1041 49.3781C57.3402 45.4781 58.4583 40.6437 58.4583 34.875C58.4583 28.1312 56.1024 22.4031 51.3905 17.6906C46.7586 12.8969 41.1284 10.5 34.4999 10.5C27.8714 10.5 22.2013 12.8969 17.4895 17.6906C12.8576 22.4031 10.5416 28.1312 10.5416 34.875C10.5416 40.6437 11.6197 45.4781 13.776 49.3781C16.0121 53.1969 18.8471 57.3812 22.2812 61.9312C25.6353 66.4 28.151 69.975 29.828 72.6562C31.585 75.3375 33.1423 78.0594 34.4999 80.8219ZM34.4999 47.0625C37.8541 47.0625 40.6892 45.8844 43.0051 43.5281C45.3211 41.1719 46.4791 38.2875 46.4791 34.875C46.4791 31.4625 45.3211 28.5781 43.0051 26.2219C40.6892 23.8656 37.8541 22.6875 34.4999 22.6875C31.1458 22.6875 28.3107 23.8656 25.9947 26.2219C23.6787 28.5781 22.5208 31.4625 22.5208 34.875C22.5208 38.2875 23.6787 41.1719 25.9947 43.5281C28.3107 45.8844 31.1458 47.0625 34.4999 47.0625Z" fill="#556B2F"/>
</svg>
